<svg width="65" height="64" viewBox="0 0 65 64" fill="none" xmlns="http://www.w3.org/2000/svg">
<path d="M41.0187 20.389C41.7507 21.121 42.9367 21.123 43.6687 20.389L46.2767 17.781C47.0077 17.049 47.0057 15.863 46.2767 15.13L39.6937 8.549C38.9637 7.817 37.7777 7.817 37.0457 8.549L34.4367 11.157C33.7067 11.889 33.7067 13.075 34.4367 13.805L41.0187 20.389Z" fill="url(#paint0_linear_22728_11687)"/>
<path d="M25.4325 36.2652C26.1635 36.9942 27.3495 36.9942 28.0805 36.2652L30.6895 33.6553C31.4215 32.9253 31.4215 31.7383 30.6895 31.0063L24.1065 24.4233C23.3755 23.6933 22.1895 23.6913 21.4575 24.4233L18.8495 27.0312C18.1175 27.7632 18.1195 28.9492 18.8495 29.6812L25.4325 36.2652Z" fill="url(#paint1_linear_22728_11687)"/>
<path d="M55.3146 36.8912L52.6676 34.2412C51.9336 33.5112 50.7506 33.5112 50.0196 34.2412L48.8586 35.4012L37.6536 24.1942L40.0806 21.7662L33.3476 15.0352L30.9196 17.4632L27.8276 20.5532L25.4536 22.9272L32.1856 29.6602L34.5626 27.2872L45.7656 38.4922L44.7176 39.5412C43.9856 40.2702 43.9836 41.4572 44.7176 42.1892L47.3646 44.8372C48.0986 45.5712 49.2836 45.5712 50.0146 44.8372L55.3136 39.5402C56.0466 38.8072 56.0466 37.6232 55.3146 36.8912Z" fill="url(#paint2_linear_22728_11687)"/>
<path d="M35.7435 44.9425C35.7435 43.7435 34.7715 42.7695 33.5705 42.7695H16.6025C15.4025 42.7695 14.4295 43.7435 14.4295 44.9425V48.4695H9.6665V55.8585H40.2245V48.4695H35.7435V44.9425Z" fill="url(#paint3_linear_22728_11687)"/>
<defs>
<linearGradient id="paint0_linear_22728_11687" x1="40.3567" y1="8" x2="40.3567" y2="20.9388" gradientUnits="userSpaceOnUse">
<stop stop-color="#EF8080"/>
<stop offset="1" stop-color="#F0145A"/>
</linearGradient>
<linearGradient id="paint1_linear_22728_11687" x1="24.7699" y1="23.875" x2="24.7699" y2="36.812" gradientUnits="userSpaceOnUse">
<stop stop-color="#EF8080"/>
<stop offset="1" stop-color="#F0145A"/>
</linearGradient>
<linearGradient id="paint2_linear_22728_11687" x1="40.6586" y1="15.0352" x2="40.6586" y2="45.3877" gradientUnits="userSpaceOnUse">
<stop stop-color="#EF8080"/>
<stop offset="1" stop-color="#F0145A"/>
</linearGradient>
<linearGradient id="paint3_linear_22728_11687" x1="24.9455" y1="42.7695" x2="24.9455" y2="55.8585" gradientUnits="userSpaceOnUse">
<stop stop-color="#EF8080"/>
<stop offset="1" stop-color="#F0145A"/>
</linearGradient>
</defs>
</svg>
