<svg xmlns="http://www.w3.org/2000/svg" xmlns:xlink="http://www.w3.org/1999/xlink" aria-hidden="true" style="position:absolute;width:0;height:0;overflow:hidden" version="1.1"><defs><symbol id="icon-logo2" viewBox="0 0 69 32"><path fill="#f0145a" d="M2.6 0h-2.6v18.78h2.6v-6.967c0-1.179 0.293-2.108 0.88-2.763s1.389-0.995 2.384-0.995c0.854 0 1.568 0.314 2.141 0.917 0.574 0.616 0.867 1.388 0.867 2.318v7.504h2.613v-7.504c0-1.729-0.472-3.091-1.415-4.112s-2.18-1.532-3.684-1.532c-0.433 0-0.867 0.052-1.287 0.17-0.433 0.118-0.778 0.249-1.058 0.393s-0.548 0.301-0.79 0.485c-0.242 0.183-0.408 0.314-0.484 0.393s-0.14 0.131-0.166 0.17v-7.255z" style="fill:var(--color1, #f0145a)"/><path fill="#323264" d="M17.297 0h-2.681v18.764h2.681v-18.764z" style="fill:var(--color2, #323264)"/><path fill="#323264" d="M33.108 13.268l0.134-1.34c0-1.796-0.59-3.297-1.796-4.503s-2.707-1.796-4.503-1.796-3.351 0.643-4.637 1.93c-1.287 1.287-1.93 2.815-1.93 4.637 0 1.876 0.67 3.485 1.984 4.825s2.895 2.010 4.718 2.010c0.697 0 1.34-0.107 1.984-0.295 0.643-0.214 1.179-0.429 1.555-0.643 0.402-0.241 0.804-0.509 1.153-0.804s0.59-0.509 0.697-0.643c0.107-0.134 0.188-0.214 0.241-0.295l-1.742-1.742-0.402 0.509c-0.268 0.322-0.724 0.643-1.367 0.992-0.67 0.348-1.367 0.509-2.118 0.509-1.045 0-1.93-0.322-2.681-0.992s-1.206-1.447-1.34-2.359h10.052zM26.942 7.907c0.992 0 1.796 0.295 2.466 0.858 0.643 0.59 1.045 1.313 1.206 2.225h-7.452c0.241-0.911 0.67-1.635 1.34-2.225 0.643-0.563 1.474-0.858 2.439-0.858z" style="fill:var(--color2, #323264)"/><path fill="#323264" d="M45.609 17.986c0 1.18-0.349 2.144-1.072 2.895-0.697 0.724-1.582 1.099-2.681 1.099-0.483 0-0.965-0.080-1.421-0.214s-0.804-0.295-1.099-0.483c-0.295-0.188-0.563-0.375-0.831-0.616-0.241-0.241-0.402-0.402-0.483-0.483s-0.134-0.161-0.188-0.214l-1.742 1.742 0.214 0.268c0.134 0.188 0.375 0.429 0.697 0.697 0.322 0.241 0.697 0.509 1.126 0.777 0.429 0.241 0.965 0.456 1.635 0.643s1.367 0.295 2.091 0.295c1.823 0 3.324-0.616 4.584-1.85 1.233-1.26 1.85-2.761 1.85-4.584v-12.063h-2.681v1.34l-0.456-0.402c-0.295-0.268-0.751-0.536-1.394-0.804s-1.34-0.402-2.037-0.402c-1.635 0-3.029 0.617-4.235 1.876s-1.796 2.761-1.796 4.557 0.59 3.297 1.796 4.557c1.206 1.26 2.6 1.876 4.235 1.876 0.456 0 0.885-0.054 1.34-0.161 0.429-0.134 0.777-0.268 1.072-0.402s0.563-0.295 0.804-0.482c0.241-0.188 0.429-0.322 0.483-0.375l0.188-0.188v1.099zM38.372 12.062c0-1.126 0.349-2.064 1.072-2.841s1.582-1.18 2.547-1.18 1.823 0.402 2.547 1.18c0.697 0.777 1.072 1.716 1.072 2.841s-0.375 2.064-1.072 2.841c-0.724 0.777-1.582 1.179-2.547 1.179s-1.823-0.402-2.547-1.179c-0.724-0.777-1.072-1.716-1.072-2.841z" style="fill:var(--color2, #323264)"/><path fill="#323264" d="M62.281 18.764v-8.31c0-1.367-0.509-2.52-1.501-3.431-0.992-0.938-2.279-1.394-3.86-1.394-0.616 0-1.233 0.080-1.822 0.241-0.59 0.188-1.072 0.375-1.421 0.59s-0.697 0.456-1.018 0.751c-0.322 0.268-0.509 0.456-0.617 0.563-0.080 0.107-0.161 0.188-0.214 0.268l1.742 1.742 0.348-0.456c0.215-0.295 0.59-0.563 1.153-0.858s1.179-0.429 1.849-0.429c0.777 0 1.421 0.241 1.93 0.697s0.751 1.045 0.751 1.716l-4.691 0.804c-1.153 0.188-2.091 0.643-2.734 1.367-0.67 0.724-1.019 1.608-1.019 2.654 0 0.992 0.429 1.85 1.287 2.6 0.884 0.777 1.957 1.153 3.27 1.153 0.456 0 0.884-0.054 1.314-0.188 0.455-0.107 0.804-0.241 1.099-0.375s0.563-0.295 0.804-0.483c0.241-0.188 0.402-0.322 0.509-0.375 0.080-0.080 0.134-0.161 0.161-0.188v1.34h2.681zM56.116 16.619c-0.697 0-1.26-0.161-1.662-0.482-0.429-0.322-0.616-0.697-0.616-1.126 0-0.456 0.134-0.858 0.429-1.153s0.697-0.509 1.179-0.59l4.155-0.67v0.268c0 1.206-0.295 2.118-0.911 2.788-0.616 0.643-1.475 0.965-2.574 0.965z" style="fill:var(--color2, #323264)"/><path fill="#323264" d="M68.197 0h-2.681v18.764h2.681v-18.764z" style="fill:var(--color2, #323264)"/><path fill="#323264" d="M0 27.865h0.839v2.941h1.818v0.684h-2.656v-3.625z" style="fill:var(--color2, #323264)"/><path fill="#323264" d="M8.132 30.714h-1.683l-0.321 0.777h-0.86l1.616-3.625h0.829l1.621 3.625h-0.88l-0.321-0.777zM7.868 30.077l-0.575-1.388-0.575 1.388h1.15z" style="fill:var(--color2, #323264)"/><path fill="#323264" d="M17.58 27.865l-1.186 3.625h-0.901l-0.797-2.454-0.823 2.454h-0.896l-1.191-3.625h0.87l0.818 2.548 0.854-2.548h0.777l0.829 2.568 0.844-2.568h0.803z" style="fill:var(--color2, #323264)"/><path fill="#323264" d="M26.504 31.552c-0.369 0-0.704-0.079-1.005-0.238-0.297-0.162-0.532-0.385-0.704-0.668-0.169-0.287-0.254-0.609-0.254-0.968s0.085-0.68 0.254-0.963c0.173-0.287 0.407-0.509 0.704-0.668 0.3-0.162 0.637-0.243 1.010-0.243 0.314 0 0.597 0.055 0.849 0.166 0.255 0.11 0.47 0.269 0.642 0.476l-0.539 0.497c-0.245-0.283-0.549-0.425-0.911-0.425-0.224 0-0.425 0.050-0.601 0.15-0.176 0.097-0.314 0.233-0.414 0.409-0.097 0.176-0.145 0.376-0.145 0.601s0.048 0.425 0.145 0.601c0.1 0.176 0.238 0.314 0.414 0.414 0.176 0.097 0.376 0.145 0.601 0.145 0.363 0 0.666-0.143 0.911-0.43l0.539 0.497c-0.173 0.211-0.387 0.371-0.642 0.482s-0.54 0.166-0.854 0.166z" style="fill:var(--color2, #323264)"/><path fill="#323264" d="M32.836 31.552c-0.376 0-0.716-0.081-1.020-0.243-0.3-0.162-0.537-0.385-0.709-0.668-0.169-0.287-0.254-0.608-0.254-0.963s0.085-0.675 0.254-0.958c0.173-0.287 0.409-0.511 0.709-0.673 0.304-0.162 0.644-0.243 1.020-0.243s0.715 0.081 1.015 0.243c0.3 0.162 0.537 0.387 0.709 0.673 0.173 0.283 0.259 0.602 0.259 0.958s-0.086 0.677-0.259 0.963c-0.173 0.283-0.409 0.506-0.709 0.668s-0.639 0.243-1.015 0.243zM32.836 30.838c0.214 0 0.407-0.048 0.58-0.145 0.173-0.1 0.307-0.238 0.404-0.414 0.1-0.176 0.15-0.376 0.15-0.601s-0.050-0.425-0.15-0.601c-0.097-0.176-0.231-0.312-0.404-0.409-0.173-0.1-0.366-0.15-0.58-0.15s-0.407 0.050-0.58 0.15c-0.173 0.097-0.309 0.233-0.409 0.409-0.097 0.176-0.145 0.376-0.145 0.601s0.048 0.425 0.145 0.601c0.1 0.176 0.237 0.314 0.409 0.414 0.173 0.097 0.366 0.145 0.58 0.145z" style="fill:var(--color2, #323264)"/><path fill="#323264" d="M41.337 31.49l-0.005-2.175-1.067 1.792h-0.378l-1.062-1.745v2.128h-0.787v-3.625h0.694l1.357 2.253 1.336-2.253h0.689l0.010 3.625h-0.787z" style="fill:var(--color2, #323264)"/><path fill="#323264" d="M47.143 27.865c0.321 0 0.599 0.053 0.834 0.161 0.238 0.107 0.421 0.259 0.549 0.456s0.192 0.43 0.192 0.699c0 0.266-0.064 0.499-0.192 0.699-0.128 0.197-0.311 0.349-0.549 0.456-0.235 0.104-0.513 0.155-0.834 0.155h-0.73v0.999h-0.839v-3.625h1.569zM47.096 29.807c0.252 0 0.444-0.053 0.575-0.161 0.131-0.11 0.197-0.266 0.197-0.466 0-0.204-0.066-0.359-0.197-0.466-0.131-0.11-0.323-0.166-0.575-0.166h-0.684v1.258h0.684z" style="fill:var(--color2, #323264)"/><path fill="#323264" d="M54.11 30.714h-1.683l-0.321 0.777h-0.86l1.616-3.625h0.828l1.621 3.625h-0.88l-0.321-0.777zM53.846 30.077l-0.574-1.388-0.575 1.388h1.149z" style="fill:var(--color2, #323264)"/><path fill="#323264" d="M61.602 27.865v3.625h-0.689l-1.807-2.201v2.201h-0.829v-3.625h0.694l1.802 2.201v-2.201h0.829z" style="fill:var(--color2, #323264)"/><path fill="#323264" d="M66.788 30.206v1.284h-0.839v-1.295l-1.403-2.33h0.891l0.968 1.61 0.968-1.61h0.824l-1.409 2.341z" style="fill:var(--color2, #323264)"/></symbol><symbol id="icon-coprorate" viewBox="0 0 33 32"><path d="M30.596 18.864c-0.344-0.142-0.706-0.215-1.076-0.215-0.816 0-1.57 0.348-2.093 0.932l-2.35-0.973c0.247-0.827 0.38-1.702 0.38-2.607s-0.133-1.781-0.38-2.607l2.35-0.973c0.523 0.584 1.277 0.932 2.093 0.932 0.37 0 0.732-0.072 1.076-0.215 1.433-0.594 2.116-2.242 1.522-3.675-0.437-1.055-1.457-1.737-2.599-1.737-0.37 0-0.732 0.072-1.076 0.215-1.129 0.468-1.792 1.591-1.732 2.747l-2.353 0.975c-0.845-1.557-2.13-2.842-3.687-3.687l0.974-2.352c0.049 0.003 0.099 0.004 0.148 0.004 1.142 0 2.162-0.682 2.599-1.737 0.593-1.433-0.089-3.081-1.522-3.675-0.344-0.142-0.706-0.214-1.076-0.214-1.142 0-2.162 0.682-2.599 1.737-0.468 1.129-0.142 2.392 0.718 3.167l-0.974 2.351c-0.827-0.247-1.702-0.38-2.607-0.38s-1.781 0.133-2.607 0.38l-0.974-2.351c0.86-0.775 1.185-2.038 0.718-3.167-0.437-1.055-1.457-1.737-2.599-1.737-0.37 0-0.732 0.072-1.076 0.215-1.433 0.593-2.116 2.242-1.522 3.675 0.437 1.055 1.457 1.737 2.599 1.737 0.050 0 0.099-0.002 0.148-0.004l0.974 2.352c-1.557 0.845-2.842 2.13-3.687 3.687l-2.353-0.975c0.060-1.156-0.603-2.279-1.732-2.747-0.344-0.142-0.706-0.215-1.076-0.215-1.142 0-2.162 0.682-2.599 1.737-0.593 1.433 0.089 3.081 1.522 3.675 0.344 0.142 0.706 0.215 1.076 0.215 0.816 0 1.569-0.348 2.093-0.932l2.35 0.973c-0.247 0.827-0.38 1.702-0.38 2.607s0.133 1.781 0.38 2.607l-2.35 0.973c-0.523-0.583-1.277-0.932-2.093-0.932-0.37 0-0.732 0.072-1.076 0.215-1.433 0.593-2.116 2.242-1.522 3.675 0.437 1.055 1.457 1.737 2.599 1.737 0.37 0 0.732-0.072 1.076-0.215 1.129-0.468 1.792-1.591 1.732-2.747l2.353-0.975c0.845 1.557 2.13 2.842 3.687 3.687l-0.974 2.352c-0.049-0.003-0.098-0.004-0.148-0.004-1.142 0-2.162 0.682-2.599 1.737-0.593 1.433 0.089 3.081 1.522 3.675 0.344 0.142 0.706 0.215 1.076 0.215 1.142 0 2.162-0.682 2.599-1.737 0.468-1.129 0.142-2.392-0.718-3.167l0.974-2.351c0.827 0.247 1.702 0.38 2.607 0.38s1.781-0.133 2.607-0.38l0.974 2.351c-0.86 0.775-1.185 2.038-0.718 3.167 0.437 1.055 1.457 1.737 2.599 1.737 0.37 0 0.732-0.072 1.076-0.215 1.433-0.593 2.116-2.242 1.522-3.675-0.437-1.055-1.457-1.737-2.599-1.737-0.049 0-0.099 0.002-0.148 0.004l-0.974-2.352c1.557-0.845 2.842-2.13 3.687-3.687l2.353 0.975c-0.060 1.156 0.603 2.279 1.732 2.747 0.344 0.142 0.706 0.215 1.076 0.215 1.142 0 2.162-0.682 2.599-1.737 0.594-1.433-0.089-3.081-1.522-3.675zM16.333 23.25c-3.998 0-7.25-3.252-7.25-7.25s3.252-7.25 7.25-7.25c3.998 0 7.25 3.252 7.25 7.25s-3.252 7.25-7.25 7.25z"/><path d="M30.596 18.864c-0.344-0.142-0.706-0.215-1.076-0.215-0.816 0-1.57 0.348-2.093 0.932l-2.35-0.973c0.247-0.827 0.38-1.702 0.38-2.607s-0.133-1.781-0.38-2.607l2.35-0.973c0.523 0.584 1.277 0.932 2.093 0.932 0.37 0 0.732-0.072 1.076-0.215 1.433-0.594 2.116-2.242 1.522-3.675-0.437-1.055-1.457-1.737-2.599-1.737-0.37 0-0.732 0.072-1.076 0.215-1.129 0.468-1.792 1.591-1.732 2.747l-2.353 0.975c-0.845-1.557-2.13-2.842-3.687-3.687l0.974-2.352c0.049 0.003 0.099 0.004 0.148 0.004 1.142 0 2.162-0.682 2.599-1.737 0.593-1.433-0.089-3.081-1.522-3.675-0.344-0.142-0.706-0.214-1.076-0.214-1.142 0-2.162 0.682-2.599 1.737-0.468 1.129-0.142 2.392 0.718 3.167l-0.974 2.351c-0.827-0.247-1.702-0.38-2.607-0.38s-1.781 0.133-2.607 0.38l-0.974-2.351c0.86-0.775 1.185-2.038 0.718-3.167-0.437-1.055-1.457-1.737-2.599-1.737-0.37 0-0.732 0.072-1.076 0.215-1.433 0.593-2.116 2.242-1.522 3.675 0.437 1.055 1.457 1.737 2.599 1.737 0.050 0 0.099-0.002 0.148-0.004l0.974 2.352c-1.557 0.845-2.842 2.13-3.687 3.687l-2.353-0.975c0.060-1.156-0.603-2.279-1.732-2.747-0.344-0.142-0.706-0.215-1.076-0.215-1.142 0-2.162 0.682-2.599 1.737-0.593 1.433 0.089 3.081 1.522 3.675 0.344 0.142 0.706 0.215 1.076 0.215 0.816 0 1.569-0.348 2.093-0.932l2.35 0.973c-0.247 0.827-0.38 1.702-0.38 2.607s0.133 1.781 0.38 2.607l-2.35 0.973c-0.523-0.583-1.277-0.932-2.093-0.932-0.37 0-0.732 0.072-1.076 0.215-1.433 0.593-2.116 2.242-1.522 3.675 0.437 1.055 1.457 1.737 2.599 1.737 0.37 0 0.732-0.072 1.076-0.215 1.129-0.468 1.792-1.591 1.732-2.747l2.353-0.975c0.845 1.557 2.13 2.842 3.687 3.687l-0.974 2.352c-0.049-0.003-0.098-0.004-0.148-0.004-1.142 0-2.162 0.682-2.599 1.737-0.593 1.433 0.089 3.081 1.522 3.675 0.344 0.142 0.706 0.215 1.076 0.215 1.142 0 2.162-0.682 2.599-1.737 0.468-1.129 0.142-2.392-0.718-3.167l0.974-2.351c0.827 0.247 1.702 0.38 2.607 0.38s1.781-0.133 2.607-0.38l0.974 2.351c-0.86 0.775-1.185 2.038-0.718 3.167 0.437 1.055 1.457 1.737 2.599 1.737 0.37 0 0.732-0.072 1.076-0.215 1.433-0.593 2.116-2.242 1.522-3.675-0.437-1.055-1.457-1.737-2.599-1.737-0.049 0-0.099 0.002-0.148 0.004l-0.974-2.352c1.557-0.845 2.842-2.13 3.687-3.687l2.353 0.975c-0.060 1.156 0.603 2.279 1.732 2.747 0.344 0.142 0.706 0.215 1.076 0.215 1.142 0 2.162-0.682 2.599-1.737 0.594-1.433-0.089-3.081-1.522-3.675zM16.333 23.25c-3.998 0-7.25-3.252-7.25-7.25s3.252-7.25 7.25-7.25c3.998 0 7.25 3.252 7.25 7.25s-3.252 7.25-7.25 7.25z"/></symbol><symbol id="icon-court" viewBox="0 0 33 32"><path d="M20.509 10.194c0.366 0.366 0.959 0.367 1.325 0l1.304-1.304c0.366-0.366 0.364-0.959 0-1.325l-3.291-3.29c-0.365-0.366-0.958-0.366-1.324 0l-1.305 1.304c-0.365 0.366-0.365 0.959 0 1.324l3.291 3.292z"/><path d="M12.716 18.133c0.366 0.364 0.959 0.364 1.324 0l1.305-1.305c0.366-0.365 0.366-0.959 0-1.325l-3.291-3.291c-0.366-0.365-0.959-0.366-1.325 0l-1.304 1.304c-0.366 0.366-0.365 0.959 0 1.325l3.292 3.292z"/><path d="M27.657 18.446l-1.323-1.325c-0.367-0.365-0.959-0.365-1.324 0l-0.581 0.58-5.602-5.604 1.213-1.214-3.366-3.365-3.947 3.946 3.366 3.367 1.189-1.187 5.601 5.603-0.524 0.524c-0.366 0.364-0.367 0.958 0 1.324l1.323 1.324c0.367 0.367 0.959 0.367 1.325 0l2.649-2.648c0.366-0.366 0.366-0.959 0-1.325z"/><path d="M17.872 22.471c0-0.599-0.486-1.087-1.087-1.087h-8.484c-0.6 0-1.087 0.487-1.087 1.087v1.764h-2.381v3.695h15.279v-3.695h-2.241v-1.764z"/></symbol><symbol id="icon-ecommerce" viewBox="0 0 32 32"><path fill="#000" d="M11.867 14.063c0.552 0 1-0.448 1-1v-3.9c0-1.744 1.418-3.162 3.162-3.162s3.163 1.419 3.163 3.162v3.9c0 0.552 0.448 1 1 1s1-0.448 1-1v-3.9c0-2.846-2.316-5.162-5.162-5.162s-5.162 2.316-5.162 5.162v3.9c0 0.552 0.448 1 1 1z" style="fill:var(--color3, #000)"/><path fill="#000" d="M27.5 11.815h-5.308v1.247c0 1.103-0.897 2-2 2s-2-0.897-2-2v-1.247h-4.325v1.247c0 1.103-0.897 2-2 2s-2-0.897-2-2v-1.247h-5.367c-0.276 0-0.447 0.217-0.381 0.486l3.499 14.248c0.211 0.801 1.054 1.451 1.882 1.451h13c0.829 0 1.671-0.649 1.883-1.45l3.498-14.248c0.066-0.268-0.105-0.486-0.381-0.486z" style="fill:var(--color3, #000)"/><path fill="#fff" d="M14.3 17.2c0-0.387 0.313-0.7 0.7-0.7s0.7 0.313 0.7 0.7v2.8c0-0.387 0.313-0.7 0.7-0.7s0.7 0.313 0.7 0.7v0.838c0.006-0.381 0.317-1.188 0.7-1.188 0.387 0 0.7 0.313 0.7 0.7 0 0 0.021 0.521 0.067 0.552 0.112-0.237 0.354-0.902 0.633-0.902 0.387 0 0.7 0.313 0.7 0.7v3.5c0 0.773-0.627 1.4-1.4 1.4h-2.34c-0.743 0-1.455-0.295-1.98-0.82l-1.105-1.105-1.575-0.705c0.003-0.668 0.526-0.87 1.050-0.87 0.451 0 0.857 0.070 1.75 0.525l0-5.425z" style="fill:var(--color4, #fff)"/></symbol><symbol id="icon-protection" viewBox="0 0 33 32"><path d="M20.783 18.848c1.176 0 2.339 0.294 3.363 0.851 0.186 0.1 0.357 0.22 0.531 0.335 1.681-3.29 2.568-6.769 2.568-10.164 0-0.191 0-0.388-0.006-0.585-0.012-0.277-0.209-0.517-0.486-0.578-3.717-0.812-7.083-2.825-9.729-5.815l-0.394-0.449c-0.117-0.135-0.283-0.209-0.462-0.209-0.191-0.025-0.338 0.068-0.455 0.197l-0.603 0.665c-2.511 2.763-5.674 4.671-9.145 5.52l-0.4 0.098c-0.271 0.062-0.462 0.302-0.468 0.578-0.222 8.652 4.886 14.874 7.089 17.151 0.596 0.612 1.261 1.221 1.894 1.724-0.237-0.715-0.374-1.468-0.374-2.241 0-3.902 3.175-7.077 7.077-7.077z"/><path d="M23.558 20.78c-0.849-0.462-1.809-0.702-2.775-0.702-3.225 0-5.846 2.622-5.846 5.846 0 1.089 0.295 2.154 0.862 3.065 1.077 1.742 2.935 2.782 4.985 2.782 3.218 0 5.846-2.622 5.846-5.846 0-2.154-1.175-4.123-3.071-5.145zM23.777 25.146l-4.572 3.558-1.561-2.442c-0.183-0.286-0.099-0.667 0.187-0.85s0.667-0.099 0.85 0.187l0.834 1.304 3.507-2.729c0.268-0.209 0.655-0.161 0.864 0.108s0.16 0.655-0.108 0.864z"/></symbol><symbol id="icon-support" viewBox="0 0 33 32"><path d="M26.892 17.538v8.648c0 1.547-1.212 2.814-2.694 2.814h-16.047c-1.482 0-2.694-1.268-2.694-2.814v-8.648h8.333v3.755l2.384 1.567 2.384-1.567v-3.755h8.333z"/><path d="M14.626 17.538v3.304l1.549 1.018 1.549-1.018v-3.304h-3.098z"/><path d="M6.204 7.571h19.943c0.941 0 1.71 0.854 1.71 1.898v5.127c0 1.044-0.769 1.898-1.71 1.898h-19.943c-0.941 0-1.71-0.854-1.71-1.898v-5.127c0-1.044 0.769-1.898 1.71-1.898z"/><path d="M12.023 2.978h8.305c0.772 0 1.403 0.631 1.403 1.403v2.189h-1.779v-1.293c0-0.349-0.285-0.635-0.634-0.635h-6.286c-0.349 0-0.634 0.286-0.634 0.635v1.293h-1.779v-2.189c0-0.772 0.631-1.403 1.403-1.403z"/></symbol><symbol id="icon-trust" viewBox="0 0 32 32"><path d="M21.003 28h-9.5v3h9.5v-3z"/><path d="M21.003 28h-9.5v3h9.5v-3z"/><path d="M7.586 1.226l-6.718 6.718 1.768 1.768 6.717-6.718-1.768-1.768z"/><path d="M7.586 1.226l-6.718 6.718 1.768 1.768 6.717-6.718-1.768-1.768z"/><path d="M24.556 1.16l-1.768 1.768 6.718 6.717 1.768-1.768-6.718-6.718z"/><path d="M24.556 1.16l-1.768 1.768 6.718 6.717 1.768-1.768-6.718-6.718z"/><path d="M22.278 4.854l-1.346-0.057c-0.388-0.055-0.784-0.019-1.155 0.106s-0.709 0.333-0.986 0.61l-2.752 2.752-2.877-2.877c-0.25-0.244-0.561-0.415-0.901-0.495s-0.695-0.066-1.028 0.041c-0.314 0.095-0.647 0.104-0.965 0.024s-0.608-0.244-0.84-0.476l-0.427-0.427-5.303 5.303 0.864 0.864-0.057 1.346c-0.055 0.388-0.019 0.783 0.106 1.155s0.333 0.709 0.61 0.986l4.806 4.806c0.064-0.631 0.367-1.214 0.845-1.63l-1.498-1.497 0.354-0.354 1.564 1.564c0.222-0.126 0.462-0.217 0.711-0.27v-1.847l-0.861-0.861 0.354-0.354 0.508 0.508v-2.675c-0.006-0.442 0.151-0.871 0.441-1.205s0.692-0.55 1.13-0.607c0.165-0.016 0.332-0.008 0.495 0.022l-0.615-0.615 0.354-0.354 0.898 0.898c0.159-0.308 0.405-0.563 0.708-0.732s0.648-0.247 0.994-0.222c0.417 0.049 0.805 0.242 1.095 0.546s0.464 0.7 0.493 1.12c0.284-0.135 0.599-0.192 0.913-0.166 0.445 0.053 0.855 0.27 1.15 0.609s0.453 0.774 0.445 1.223v1.712c0.455 0.095 0.875 0.315 1.212 0.635s0.578 0.728 0.696 1.177l1.394-1.394 0.354 0.354-1.658 1.658c0 0.007 0.002 0.013 0.002 0.020v1.66c0.449-0.047 0.869-0.246 1.189-0.564l3.42-3.42c0.244-0.25 0.415-0.561 0.495-0.901s0.066-0.695-0.041-1.028c-0.095-0.314-0.104-0.647-0.024-0.965s0.244-0.608 0.476-0.84l0.427-0.427-5.303-5.303-0.864 0.864z"/><path d="M22.278 4.854l-1.346-0.057c-0.388-0.055-0.784-0.019-1.155 0.106s-0.709 0.333-0.986 0.61l-2.752 2.752-2.877-2.877c-0.25-0.244-0.561-0.415-0.901-0.495s-0.695-0.066-1.028 0.041c-0.314 0.095-0.647 0.104-0.965 0.024s-0.608-0.244-0.84-0.476l-0.427-0.427-5.303 5.303 0.864 0.864-0.057 1.346c-0.055 0.388-0.019 0.783 0.106 1.155s0.333 0.709 0.61 0.986l4.806 4.806c0.064-0.631 0.367-1.214 0.845-1.63l-1.498-1.497 0.354-0.354 1.564 1.564c0.222-0.126 0.462-0.217 0.711-0.27v-1.847l-0.861-0.861 0.354-0.354 0.508 0.508v-2.675c-0.006-0.442 0.151-0.871 0.441-1.205s0.692-0.55 1.13-0.607c0.165-0.016 0.332-0.008 0.495 0.022l-0.615-0.615 0.354-0.354 0.898 0.898c0.159-0.308 0.405-0.563 0.708-0.732s0.648-0.247 0.994-0.222c0.417 0.049 0.805 0.242 1.095 0.546s0.464 0.7 0.493 1.12c0.284-0.135 0.599-0.192 0.913-0.166 0.445 0.053 0.855 0.27 1.15 0.609s0.453 0.774 0.445 1.223v1.712c0.455 0.095 0.875 0.315 1.212 0.635s0.578 0.728 0.696 1.177l1.394-1.394 0.354 0.354-1.658 1.658c0 0.007 0.002 0.013 0.002 0.020v1.66c0.449-0.047 0.869-0.246 1.189-0.564l3.42-3.42c0.244-0.25 0.415-0.561 0.495-0.901s0.066-0.695-0.041-1.028c-0.095-0.314-0.104-0.647-0.024-0.965s0.244-0.608 0.476-0.84l0.427-0.427-5.303-5.303-0.864 0.864z"/><path d="M14.94 10.845c-0.038-0.325-0.202-0.622-0.457-0.826s-0.58-0.301-0.906-0.268c-0.316 0.044-0.604 0.202-0.811 0.444s-0.317 0.552-0.31 0.871v5.679c-0.53 0-1.039 0.211-1.414 0.586s-0.586 0.884-0.586 1.414v4.837c0.004 0.349 0.103 0.691 0.287 0.988s0.445 0.538 0.756 0.698c0.289 0.154 0.531 0.384 0.7 0.665s0.258 0.603 0.258 0.931v0.604h7.5v-1.222l0.992-0.911c0.313-0.236 0.567-0.541 0.742-0.892s0.266-0.737 0.266-1.129v-7.568c0-0.53-0.211-1.039-0.586-1.414s-0.884-0.586-1.414-0.586v-2.161c0.008-0.324-0.103-0.639-0.313-0.885s-0.504-0.406-0.825-0.449c-0.315-0.028-0.629 0.065-0.878 0.26s-0.415 0.477-0.463 0.79h0.229v7.722h-0.5v-7.722h0.25v-1.216c0.008-0.324-0.103-0.639-0.313-0.885s-0.504-0.406-0.825-0.449c-0.173-0.015-0.347 0.005-0.512 0.061s-0.316 0.145-0.444 0.262c-0.128 0.117-0.23 0.26-0.3 0.418s-0.106 0.331-0.106 0.504v0.851h0.25v7.722h-0.5v-7.722h0.234zM12.656 21.020h-0.5v-4h0.5v4zM19.706 13.899h0.5v5.222h-0.5v-5.222z"/><path d="M14.94 10.845c-0.038-0.325-0.202-0.622-0.457-0.826s-0.58-0.301-0.906-0.268c-0.316 0.044-0.604 0.202-0.811 0.444s-0.317 0.552-0.31 0.871v5.679c-0.53 0-1.039 0.211-1.414 0.586s-0.586 0.884-0.586 1.414v4.837c0.004 0.349 0.103 0.691 0.287 0.988s0.445 0.538 0.756 0.698c0.289 0.154 0.531 0.384 0.7 0.665s0.258 0.603 0.258 0.931v0.604h7.5v-1.222l0.992-0.911c0.313-0.236 0.567-0.541 0.742-0.892s0.266-0.737 0.266-1.129v-7.568c0-0.53-0.211-1.039-0.586-1.414s-0.884-0.586-1.414-0.586v-2.161c0.008-0.324-0.103-0.639-0.313-0.885s-0.504-0.406-0.825-0.449c-0.315-0.028-0.629 0.065-0.878 0.26s-0.415 0.477-0.463 0.79h0.229v7.722h-0.5v-7.722h0.25v-1.216c0.008-0.324-0.103-0.639-0.313-0.885s-0.504-0.406-0.825-0.449c-0.173-0.015-0.347 0.005-0.512 0.061s-0.316 0.145-0.444 0.262c-0.128 0.117-0.23 0.26-0.3 0.418s-0.106 0.331-0.106 0.504v0.851h0.25v7.722h-0.5v-7.722h0.234zM12.656 21.020h-0.5v-4h0.5v4zM19.706 13.899h0.5v5.222h-0.5v-5.222z"/></symbol><symbol id="icon-close" viewBox="0 0 32 32"><path fill="none" stroke="#ec6f5d" stroke-linecap="butt" stroke-linejoin="miter" stroke-miterlimit="4" stroke-width="2" d="M7 7l18 18" style="stroke:var(--color5, #ec6f5d)"/><path fill="none" stroke="#ec6f5d" stroke-linecap="butt" stroke-linejoin="miter" stroke-miterlimit="4" stroke-width="2" d="M25 7l-18 18" style="stroke:var(--color5, #ec6f5d)"/></symbol><symbol id="icon-burger" viewBox="0 0 31 32"><path stroke-linecap="butt" stroke-linejoin="miter" stroke-miterlimit="4" stroke-width="1.9394" d="M6.788 10.182h17.455"/><path stroke-linecap="butt" stroke-linejoin="miter" stroke-miterlimit="4" stroke-width="1.9394" d="M6.788 16h17.455"/><path stroke-linecap="butt" stroke-linejoin="miter" stroke-miterlimit="4" stroke-width="1.9394" d="M6.788 21.818h17.455"/></symbol><symbol id="icon-arrow_button_scroll" viewBox="0 0 53 32"><path stroke-linecap="butt" stroke-linejoin="miter" stroke-miterlimit="4" stroke-width="5.3333" d="M2.667 2.667l24 24 24-24"/></symbol><symbol id="icon-arrow" viewBox="0 0 30 32"><path stroke-linecap="butt" stroke-linejoin="miter" stroke-miterlimit="4" stroke-width="4.9231" d="M8.615 4.923l11.077 11.077-11.077 11.077"/></symbol><symbol id="icon-ellipse" viewBox="0 0 32 32"><path d="M32 16c0 8.837-7.163 16-16 16s-16-7.163-16-16c0-8.837 7.163-16 16-16s16 7.163 16 16z"/></symbol><symbol id="icon-facebook-footer" viewBox="0 0 32 32"><path d="M32 16.098c0-8.891-7.163-16.098-16-16.098s-16 7.207-16 16.098c0 8.035 5.851 14.695 13.5 15.902v-11.249h-4.062v-4.653h4.062v-3.547c0-4.035 2.389-6.263 6.043-6.263 1.751 0 3.582 0.314 3.582 0.314v3.962h-2.018c-1.988 0-2.607 1.241-2.607 2.514v3.020h4.437l-0.709 4.653h-3.728v11.249c7.649-1.208 13.5-7.867 13.5-15.902z"/></symbol><symbol id="icon-facebook-header" viewBox="0 0 32 32"><path d="M32 16.098c0-8.891-7.163-16.098-16-16.098s-16 7.207-16 16.098c0 8.035 5.851 14.695 13.5 15.902v-11.249h-4.063v-4.653h4.063v-3.546c0-4.034 2.389-6.263 6.043-6.263 1.751 0 3.582 0.314 3.582 0.314v3.962h-2.018c-1.988 0-2.607 1.241-2.607 2.514v3.020h4.437l-0.709 4.653h-3.728v11.249c7.649-1.208 13.5-7.867 13.5-15.902z"/></symbol><symbol id="icon-facebook-square" viewBox="0 0 32 32"><path d="M30.234 0h-28.468c-0.976 0-1.766 0.79-1.766 1.766v28.468c0 0.976 0.79 1.766 1.766 1.766h15.326v-12.392h-4.172v-4.828h4.172v-3.566c0-4.132 2.524-6.38 6.212-6.38 1.766 0 3.284 0.128 3.726 0.188v4.32h-2.56c-2 0-2.39 0.96-2.39 2.36v3.080h4.78l-0.62 4.84h-4.16v12.378h8.154c0.976 0 1.766-0.79 1.766-1.766v-28.468c0-0.976-0.79-1.766-1.766-1.766z"/></symbol><symbol id="icon-linkedin" viewBox="0 0 32 32"><path d="M4.8 12h4.8v15.2h-4.8v-15.2zM7.2 4.4c1.6 0 2.8 1.2 2.8 2.8-0.2 1.4-1.4 2.8-2.8 2.8-1.6 0-2.8-1.4-2.8-2.8 0-1.6 1.2-2.8 2.8-2.8zM12.4 12h4.6v2c1-1.6 2.8-2.4 4.6-2.4 4.8 0 5.6 3.2 5.6 7.2v8.4h-4.8v-7.4c0-1.8 0-4-2.4-4s-2.8 2-2.8 4v7.6h-4.8v-15.4zM26 0h-20c-4 0-6 2-6 6v20c0 4 2 6 6 6h20c4 0 6-2 6-6v-20c0-4-2-6-6-6z"/></symbol><symbol id="icon-logo" viewBox="0 0 69 32"><path fill="#f0145a" d="M2.644 0h-2.644v19.093h2.644v-7.083c0-1.198 0.298-2.144 0.894-2.809s1.413-1.012 2.423-1.012c0.868 0 1.594 0.32 2.177 0.932 0.583 0.626 0.881 1.411 0.881 2.357v7.629h2.657v-7.629c0-1.758-0.479-3.142-1.438-4.181s-2.216-1.558-3.745-1.558c-0.441 0-0.881 0.053-1.309 0.173-0.441 0.12-0.79 0.253-1.076 0.399s-0.557 0.306-0.803 0.493c-0.246 0.186-0.415 0.32-0.492 0.399s-0.143 0.133-0.168 0.173v-7.376z" style="fill:var(--color1, #f0145a)"/><path fill="#fff" d="M17.585 0h-2.725v19.077h2.725v-19.077z" style="fill:var(--color4, #fff)"/><path fill="#fff" d="M33.659 13.49l0.136-1.363c0-1.826-0.6-3.352-1.826-4.578s-2.752-1.826-4.578-1.826-3.407 0.654-4.715 1.962c-1.308 1.308-1.962 2.862-1.962 4.715 0 1.908 0.681 3.543 2.017 4.905s2.943 2.044 4.796 2.044c0.709 0 1.363-0.109 2.017-0.3 0.654-0.218 1.199-0.436 1.581-0.654 0.409-0.245 0.818-0.518 1.172-0.818s0.6-0.518 0.709-0.654c0.109-0.136 0.191-0.218 0.245-0.3l-1.771-1.771-0.409 0.518c-0.273 0.327-0.736 0.654-1.39 1.008-0.681 0.354-1.39 0.518-2.153 0.518-1.063 0-1.962-0.327-2.725-1.008s-1.226-1.472-1.363-2.398h10.22zM27.391 8.039c1.008 0 1.826 0.3 2.507 0.872 0.654 0.6 1.063 1.335 1.226 2.262h-7.576c0.245-0.927 0.681-1.662 1.363-2.262 0.654-0.572 1.499-0.872 2.48-0.872z" style="fill:var(--color4, #fff)"/><path fill="#fff" d="M46.37 18.286c0 1.199-0.354 2.18-1.090 2.943-0.709 0.736-1.608 1.117-2.725 1.117-0.491 0-0.981-0.082-1.444-0.218s-0.818-0.3-1.117-0.491c-0.3-0.191-0.572-0.382-0.845-0.627-0.245-0.245-0.409-0.409-0.491-0.491s-0.136-0.164-0.191-0.218l-1.771 1.771 0.218 0.273c0.136 0.191 0.382 0.436 0.709 0.709 0.327 0.245 0.709 0.518 1.145 0.79 0.436 0.245 0.981 0.463 1.662 0.654s1.39 0.3 2.126 0.3c1.853 0 3.379-0.627 4.66-1.88 1.254-1.281 1.88-2.807 1.88-4.66v-12.264h-2.725v1.363l-0.463-0.409c-0.3-0.273-0.763-0.545-1.417-0.818s-1.363-0.409-2.071-0.409c-1.662 0-3.080 0.627-4.306 1.908s-1.826 2.807-1.826 4.633 0.6 3.352 1.826 4.633c1.226 1.281 2.643 1.908 4.306 1.908 0.463 0 0.899-0.055 1.363-0.164 0.436-0.136 0.79-0.273 1.090-0.409s0.572-0.3 0.818-0.491c0.245-0.191 0.436-0.327 0.491-0.381l0.191-0.191v1.117zM39.011 12.264c0-1.145 0.354-2.098 1.090-2.889s1.608-1.199 2.589-1.199 1.853 0.409 2.589 1.199c0.709 0.79 1.090 1.744 1.090 2.889s-0.382 2.098-1.090 2.889c-0.736 0.79-1.608 1.199-2.589 1.199s-1.853-0.409-2.589-1.199c-0.736-0.79-1.090-1.744-1.090-2.889z" style="fill:var(--color4, #fff)"/><path fill="#fff" d="M63.319 19.077v-8.448c0-1.39-0.518-2.562-1.526-3.488-1.009-0.954-2.317-1.417-3.925-1.417-0.627 0-1.253 0.082-1.853 0.245-0.599 0.191-1.090 0.381-1.445 0.6s-0.708 0.463-1.035 0.763c-0.327 0.273-0.518 0.463-0.627 0.572-0.082 0.109-0.164 0.191-0.218 0.273l1.771 1.771 0.354-0.463c0.218-0.3 0.6-0.572 1.172-0.872s1.199-0.436 1.88-0.436c0.79 0 1.445 0.245 1.962 0.709s0.763 1.063 0.763 1.744l-4.769 0.818c-1.172 0.191-2.126 0.654-2.78 1.39-0.681 0.736-1.036 1.635-1.036 2.698 0 1.008 0.436 1.88 1.308 2.643 0.899 0.79 1.989 1.172 3.325 1.172 0.463 0 0.899-0.055 1.335-0.191 0.463-0.109 0.818-0.245 1.117-0.382s0.572-0.3 0.818-0.491c0.245-0.191 0.409-0.327 0.518-0.381 0.082-0.082 0.136-0.164 0.163-0.191v1.363h2.725zM57.051 16.896c-0.708 0-1.281-0.164-1.69-0.491-0.436-0.327-0.627-0.709-0.627-1.145 0-0.463 0.137-0.872 0.436-1.172s0.708-0.518 1.199-0.6l4.224-0.681v0.272c0 1.226-0.3 2.153-0.926 2.834-0.627 0.654-1.499 0.981-2.617 0.981z" style="fill:var(--color4, #fff)"/><path fill="#fff" d="M69.333 0h-2.725v19.077h2.725v-19.077z" style="fill:var(--color4, #fff)"/><path fill="#fff" d="M0 28.33h0.853v2.99h1.848v0.695h-2.701v-3.685z" style="fill:var(--color4, #fff)"/><path fill="#fff" d="M8.268 31.225h-1.711l-0.326 0.79h-0.874l1.643-3.685h0.842l1.648 3.685h-0.895l-0.326-0.79zM7.999 30.578l-0.584-1.411-0.584 1.411h1.169z" style="fill:var(--color4, #fff)"/><path fill="#fff" d="M17.873 28.33l-1.206 3.685h-0.916l-0.811-2.495-0.837 2.495h-0.911l-1.211-3.685h0.884l0.832 2.59 0.869-2.59h0.79l0.842 2.611 0.858-2.611h0.816z" style="fill:var(--color4, #fff)"/><path fill="#fff" d="M26.946 32.078c-0.376 0-0.716-0.081-1.021-0.242-0.302-0.165-0.541-0.391-0.716-0.679-0.172-0.291-0.258-0.619-0.258-0.984s0.086-0.691 0.258-0.979c0.175-0.291 0.414-0.518 0.716-0.679 0.305-0.165 0.648-0.247 1.027-0.247 0.319 0 0.607 0.056 0.863 0.168 0.26 0.112 0.477 0.274 0.653 0.484l-0.548 0.505c-0.249-0.288-0.558-0.432-0.927-0.432-0.228 0-0.432 0.051-0.611 0.153-0.179 0.098-0.319 0.237-0.421 0.416-0.098 0.179-0.147 0.383-0.147 0.611s0.049 0.432 0.147 0.611c0.102 0.179 0.242 0.319 0.421 0.421 0.179 0.098 0.383 0.147 0.611 0.147 0.369 0 0.677-0.146 0.927-0.437l0.548 0.505c-0.175 0.214-0.393 0.377-0.653 0.49s-0.549 0.168-0.869 0.168z" style="fill:var(--color4, #fff)"/><path fill="#fff" d="M33.383 32.078c-0.383 0-0.728-0.082-1.037-0.247-0.305-0.165-0.546-0.391-0.721-0.679-0.172-0.291-0.258-0.618-0.258-0.979s0.086-0.686 0.258-0.974c0.175-0.291 0.416-0.519 0.721-0.684 0.309-0.165 0.655-0.247 1.037-0.247s0.727 0.082 1.032 0.247c0.305 0.165 0.546 0.393 0.721 0.684 0.176 0.288 0.263 0.612 0.263 0.974s-0.088 0.688-0.263 0.979c-0.175 0.288-0.416 0.514-0.721 0.679s-0.649 0.247-1.032 0.247zM33.383 31.352c0.218 0 0.414-0.049 0.59-0.147 0.175-0.102 0.312-0.242 0.411-0.421 0.102-0.179 0.153-0.383 0.153-0.611s-0.051-0.432-0.153-0.611c-0.098-0.179-0.235-0.318-0.411-0.416-0.176-0.102-0.372-0.153-0.59-0.153s-0.414 0.051-0.59 0.153c-0.175 0.098-0.314 0.237-0.416 0.416-0.098 0.179-0.147 0.383-0.147 0.611s0.049 0.432 0.147 0.611c0.102 0.179 0.24 0.319 0.416 0.421 0.176 0.098 0.372 0.147 0.59 0.147z" style="fill:var(--color4, #fff)"/><path fill="#fff" d="M42.026 32.015l-0.005-2.211-1.085 1.822h-0.384l-1.079-1.774v2.164h-0.8v-3.685h0.705l1.379 2.29 1.358-2.29h0.7l0.011 3.685h-0.8z" style="fill:var(--color4, #fff)"/><path fill="#fff" d="M47.928 28.33c0.326 0 0.609 0.054 0.848 0.163 0.242 0.109 0.428 0.263 0.558 0.463s0.195 0.437 0.195 0.711c0 0.27-0.065 0.507-0.195 0.711-0.13 0.2-0.316 0.354-0.558 0.463-0.239 0.105-0.521 0.158-0.848 0.158h-0.742v1.016h-0.853v-3.685h1.595zM47.881 30.304c0.256 0 0.451-0.054 0.584-0.163 0.133-0.112 0.2-0.27 0.2-0.474 0-0.207-0.067-0.365-0.2-0.474-0.133-0.112-0.328-0.168-0.584-0.168h-0.695v1.279h0.695z" style="fill:var(--color4, #fff)"/><path fill="#fff" d="M55.012 31.225h-1.711l-0.326 0.79h-0.874l1.643-3.685h0.842l1.648 3.685h-0.895l-0.326-0.79zM54.743 30.578l-0.584-1.411-0.585 1.411h1.169z" style="fill:var(--color4, #fff)"/><path fill="#fff" d="M62.628 28.33v3.685h-0.7l-1.837-2.237v2.237h-0.843v-3.685h0.706l1.832 2.237v-2.237h0.843z" style="fill:var(--color4, #fff)"/><path fill="#fff" d="M67.901 30.709v1.306h-0.853v-1.316l-1.427-2.369h0.906l0.985 1.637 0.984-1.637h0.837l-1.432 2.38z" style="fill:var(--color4, #fff)"/></symbol><symbol id="icon-slash" viewBox="0 0 14 32"><path d="M10.332 0h3.966l-10.332 32h-3.966l10.332-32z"/></symbol><symbol id="icon-telegram" viewBox="0 0 32 32"><path d="M12 23.922l-2-6 22-16-30.756 11.828c0 0-1.344 0.46-1.238 1.31s1.204 1.238 1.204 1.238l7.15 2.406 3.24 10.308 5.484-4.822-0.014-0.010 7.214 5.532c1.946 0.85 2.654-0.92 2.654-0.92l5.062-26.87-20 22z"/></symbol></defs></svg>